<?xml version="1.0" encoding="UTF-8"?>
<svg width="800px" height="800px" fill="#ffff00" version="1.1" viewBox="0 0 400.49 400.49"
	xml:space="preserve" xmlns="http://www.w3.org/2000/svg">
	<defs>
		<linearGradient id="a" y2="100%">
			<stop stop-color="#00c6ff" offset="0" />
			<stop stop-color="#0072ff" offset="1" />
		</linearGradient>
	</defs>

	<g fill="url(#a)">
		<path
			d="m191.6 77.998c-5.985-4.654-11.863-8.755-17.567-12.191-28.523 25.851-51.702 57.764-70.001 91.505 2.437 9.365 5.432 18.898 9.032 28.488 10.972-23.634 24.622-46.039 40.515-66.678 11.32-14.859 23.997-28.77 38.021-41.124z" />
		<path
			d="m310.21 253.58c6.927-2.77 13.414-5.821 19.451-9.144-2.053-9.313-4.71-18.898-7.926-28.657-3.989 9.59-8.535 19.123-13.578 28.544 0.829 3.159 1.495 6.205 2.053 9.257z" />
		<path
			d="m90.278 146.5c-6.927 2.77-13.414 5.821-19.451 9.144 8.248 37.458 23.931 74.01 44.396 106.41 9.257 2.55 18.954 4.71 29.041 6.318-11.924-17.085-22.385-35.205-31.201-54.093-8.786-18.642-16.271-38.374-20.731-58.527-0.83-3.158-1.496-6.204-2.054-9.256z" />
		<path
			d="m308.16 155.76c-8.899 40.264-28.462 78.971-51.932 112.62 10.143-1.72 19.896-3.881 29.21-6.482 19.912-32.788 35.799-68.362 44.175-105.91-5.873-3.272-12.36-6.374-19.456-9.257-0.553 2.934-1.163 5.986-1.997 9.032z" />
		<path
			d="m289.92 44.687c14.797 8.535 23.444 29.153 24.387 57.252 7.316 2.493 14.357 5.263 21.059 8.259 0.568-28.334-5.228-61.752-29.373-79.877-28.616-21.484-68.27-9.4-95.718 7.936 5.929 4.157 11.807 8.812 17.623 13.911 16.075-8.643 42.345-18.842 62.022-7.481z" />
		<path
			d="m168.99 117.46c10.25-0.947 20.674-1.388 31.258-1.388 10.808 0 21.228 0.445 31.314 1.331-6.651-8.09-13.414-15.406-20.173-22.057-7.368-0.225-14.746-0.225-22.113 0-6.928 6.764-13.691 14.131-20.286 22.114z" />
		<path
			d="m86.182 102.11c0.625-19.825 5.059-45.348 23.388-56.817 20.818-13.025 49.106-1.198 67.994 9.789 49.388 28.739 86.088 79.713 109.86 130.66 3.604-9.59 6.595-19.067 9.032-28.431-15.882-29.281-35.395-56.904-58.752-80.717-22.533-22.968-49.69-44.216-80.896-53.642-24.95-7.537-52.9-5.069-70.994 15.386-17.091 19.318-21.228 47.186-20.695 72.079 6.707-2.99 13.742-5.816 21.058-8.309z" />
		<path
			d="m182.41 247.91c5.627 2.14 11.643 3.231 17.669 3.231 25.354 0 47.237-19.886 49.562-45.153 2.324-25.277-15.447-48.932-40.448-53.555-24.991-4.623-50.171 10.972-57.037 35.466-6.871 24.499 6.466 50.974 30.254 60.011z" />
		<path d="m226.46 334.27c-2.826 2.662 7.096-6.426 0 0z" />
		<path
			d="m191.6 322.08c-2.33-2.053-4.71-4.214-7.096-6.431-10.752-0.389-21.228-1.219-31.37-2.493 6.815 7.649 13.798 14.74 20.895 21.115 5.877-3.492 11.755-7.593 17.571-12.191z" />
		<path
			d="m314.31 297.97c-0.609 19.267-4.721 43.31-21.448 55.506-19.123 13.937-46.362 4.234-64.906-5.678-5.821 5.043-11.75 9.754-17.679 14.024 27.843 16.881 66.693 29.629 95.647 7.997 24.284-18.14 30.049-51.738 29.445-80.159-6.708 2.991-13.742 5.76-21.059 8.31z" />
		<path
			d="m247.36 313.1c-10.307 1.275-20.782 2.161-31.427 2.493-12.846 12.544-27.52 23.793-43.341 32.312-14.254 7.67-31.083 14.182-47.549 12.186-34.319-4.152-40.12-45.937-38.968-73.651v-0.276c0.558-14.054 2.627-28.349 6.205-41.953-4.987-9.421-9.533-18.898-13.522-28.431-8.991 27.279-14.766 56.315-13.512 85.146 0.963 22.17 6.415 46.1 22.231 62.602 40.341 42.081 105.84 1.946 138.99-29.256 7.096-6.432 14.08-13.523 20.895-21.172z" />
		<path
			d="m345.63 127.89c3.818 2.105 30.116 16.569-0.223-0.125-0.271-0.148-0.287-0.156-0.104-0.055-21.968-12.026-46.194-19.967-70.67-24.997 6.262 8.202 12.247 16.85 17.9 25.938 28.493 8.141 61.158 22.431 78.7 47.503 6.815 9.743 10.307 21.33 7.224 33.085-3.292 12.575-12.534 22.815-22.364 30.868-23.03 18.872-52.731 29.604-81.49 35.953-33.234 7.337-67.63 9.472-101.56 6.943-24.986-1.864-50.473-6.072-74.168-14.408-0.998 7.055-1.772 14.208-1.772 21.34 40.591 12.795 84.04 16.835 126.42 14.239 41.59-2.55 85.258-11.295 121.88-31.974 26.967-13.481 55.091-39.864 55.091-72.161-1e-3 -33.019-28.254-57.451-54.869-72.149z" />
		<path
			d="m24.041 185.05c10.737-25.032 40.228-40.412 64.251-49.638 6.385-2.632 13.015-4.89 19.676-6.707 5.596-9.032 11.638-17.736 17.956-25.994-24.443 5.023-49.029 12.856-70.83 25.16-1.111 0.553-2.161 1.111-3.215 1.772h-0.056c-25.861 14.915-52.613 39.424-51.804 71.788 0.809 32.492 28.764 56.397 55.076 70.876 0.666-7.316 1.771-14.797 3.215-22.333-21.628-13.34-46.153-37.23-34.269-64.924z" />
		</g>
	

</svg>